<svg width="39" height="45" viewBox="0 0 39 45" fill="none" xmlns="http://www.w3.org/2000/svg">
<path d="M20 5.625C9.46094 5.625 1 12.6016 1 21.0625C1 24.7734 2.55859 28.1133 5.23047 30.7852C4.26562 34.5703 1.14844 37.8359 1.14844 37.9102C1 38.0586 0.925781 38.3555 1 38.5781C1.14844 38.8008 1.29688 38.875 1.59375 38.875C6.49219 38.875 10.2031 36.5742 11.9844 35.0898C14.4336 35.9805 17.1055 36.5 20 36.5C30.4648 36.5 39 29.5977 39 21.0625C39 12.6016 30.4648 5.625 20 5.625ZM10.5 23.4375C9.16406 23.4375 8.125 22.3984 8.125 21.0625C8.125 19.8008 9.16406 18.6875 10.5 18.6875C11.7617 18.6875 12.875 19.8008 12.875 21.0625C12.875 22.3984 11.7617 23.4375 10.5 23.4375ZM20 23.4375C18.6641 23.4375 17.625 22.3984 17.625 21.0625C17.625 19.8008 18.6641 18.6875 20 18.6875C21.2617 18.6875 22.375 19.8008 22.375 21.0625C22.375 22.3984 21.2617 23.4375 20 23.4375ZM29.5 23.4375C28.1641 23.4375 27.125 22.3984 27.125 21.0625C27.125 19.8008 28.1641 18.6875 29.5 18.6875C30.7617 18.6875 31.875 19.8008 31.875 21.0625C31.875 22.3984 30.7617 23.4375 29.5 23.4375Z" fill="#01078D"/>
</svg>
