<svg width="36" height="37" viewBox="0 0 36 37" fill="none" xmlns="http://www.w3.org/2000/svg">
<path d="M15 17V12.5L22.5 18.5L15 24.5V20H1.5V17H15ZM3.687 23H6.873C7.92007 25.5786 9.83056 27.7133 12.2777 29.0389C14.7248 30.3645 17.5565 30.7987 20.2883 30.2671C23.0202 29.7356 25.4825 28.2713 27.254 26.1249C29.0255 23.9784 29.9962 21.2831 30 18.5C30.0016 15.714 29.0337 13.0143 27.2624 10.8638C25.491 8.71342 23.0267 7.24634 20.292 6.71422C17.5572 6.1821 14.7226 6.61811 12.2742 7.94747C9.82576 9.27682 7.9162 11.4167 6.873 14H3.687C5.598 7.9145 11.283 3.5 18 3.5C26.2845 3.5 33 10.2155 33 18.5C33 26.7845 26.2845 33.5 18 33.5C11.283 33.5 5.598 29.0855 3.687 23Z" fill="#01078D"/>
</svg>
