<svg width="50" height="48" viewBox="0 0 50 48" fill="none" xmlns="http://www.w3.org/2000/svg">
<path d="M47.2387 2.32215L37.4887 0.0721529C36.4574 -0.209097 35.3324 0.353403 34.8637 1.38465L30.3637 11.8847C29.9887 12.8222 30.2699 13.8534 31.0199 14.5097L36.7387 19.1972C33.3637 26.3222 27.4574 32.3222 20.1449 35.7909L15.4574 30.0722C14.8012 29.3222 13.7699 29.0409 12.8324 29.4159L2.33245 33.9159C1.3012 34.3847 0.832448 35.5097 1.01995 36.5409L3.26995 46.2909C3.5512 47.3222 4.39495 47.9784 5.51995 47.9784C29.5199 47.9784 49.0199 28.5722 49.0199 4.4784C49.0199 3.44715 48.2699 2.6034 47.2387 2.32215Z" fill="#C3072C"/>
</svg>
