<svg width="36" height="36" viewBox="0 0 36 36" fill="none" xmlns="http://www.w3.org/2000/svg">
<g clip-path="url(#clip0_2_1172)">
<path d="M35.7034 24.783L35.2987 20.661L20.6237 12.9645C20.6237 12.9645 20.7547 10.3515 20.6237 6.49947C20.479 4.07896 19.5446 1.78261 17.9755 -0.0090332L17.9827 -3.32035e-05H17.7206C16.1606 1.78089 15.2291 4.06207 15.0797 6.46797L15.0782 6.49947C14.9472 10.35 15.0782 12.9645 15.0782 12.9645L0.40464 20.661L0 24.783L9.92016 21.672L14.9472 20.799C14.7658 24.4058 15.1219 28.0202 16.0027 31.5135L15.9509 31.2705L12.0226 32.913V35.61L17.0914 34.41C17.3146 34.878 17.5234 35.259 17.748 35.628L17.7178 35.5755V35.9985C17.7638 35.9295 17.807 35.8545 17.8517 35.784C17.8978 35.853 17.9395 35.928 17.987 35.9985V35.5755C18.1814 35.2605 18.3902 34.8795 18.5803 34.4865L18.6134 34.41L23.6822 35.61V32.913L19.7539 31.2705C20.4206 28.671 20.8022 25.686 20.8022 22.6095C20.8022 21.972 20.7864 21.339 20.7533 20.7105L20.7576 20.7975L25.7861 21.6705L35.7048 24.7815L35.7034 24.783Z" fill="#E40808"/>
</g>
<defs>
<clipPath id="clip0_2_1172">
<rect width="36" height="36" fill="white"/>
</clipPath>
</defs>
</svg>
