<svg width="36" height="37" viewBox="0 0 36 37" fill="none" xmlns="http://www.w3.org/2000/svg">
<path d="M3.6001 7.69998C3.6001 6.7452 3.97938 5.82952 4.65451 5.15439C5.32964 4.47926 6.24532 4.09998 7.2001 4.09998H19.8001C20.7549 4.09998 21.6705 4.47926 22.3457 5.15439C23.0208 5.82952 23.4001 6.7452 23.4001 7.69998V18.5C23.4001 19.4548 23.0208 20.3704 22.3457 21.0456C21.6705 21.7207 20.7549 22.1 19.8001 22.1H16.9561L14.2921 27.0284C14.2152 27.171 14.1011 27.2902 13.9621 27.3734C13.823 27.4566 13.6641 27.5007 13.5021 27.501C13.34 27.5014 13.1809 27.458 13.0415 27.3755C12.902 27.2929 12.7875 27.1742 12.7099 27.032L10.0117 22.1H7.2001C6.24532 22.1 5.32964 21.7207 4.65451 21.0456C3.97938 20.3704 3.6001 19.4548 3.6001 18.5V7.69998ZM9.9001 9.49998C9.6614 9.49998 9.43248 9.5948 9.2637 9.76358C9.09492 9.93236 9.0001 10.1613 9.0001 10.4V12.2C9.00001 12.367 9.04639 12.5307 9.13404 12.6728C9.22169 12.815 9.34715 12.9299 9.4964 13.0048C9.64564 13.0797 9.81279 13.1116 9.97913 13.097C10.1455 13.0823 10.3045 13.0216 10.4383 12.9218C10.0747 14.1206 9.5329 14.8928 9.2629 15.1628C9.17922 15.2465 9.11284 15.3458 9.06755 15.4551C9.02227 15.5645 8.99896 15.6816 8.99896 15.8C8.99896 15.9183 9.02227 16.0355 9.06755 16.1448C9.11284 16.2542 9.17922 16.3535 9.2629 16.4372C9.43189 16.6062 9.6611 16.7011 9.9001 16.7011C10.0184 16.7011 10.1356 16.6778 10.2449 16.6325C10.3543 16.5872 10.4536 16.5209 10.5373 16.4372C11.3095 15.6632 12.6001 13.514 12.6001 10.4C12.6001 10.1613 12.5053 9.93236 12.3365 9.76358C12.1677 9.5948 11.9388 9.49998 11.7001 9.49998H9.9001ZM15.3001 9.49998C15.0614 9.49998 14.8325 9.5948 14.6637 9.76358C14.4949 9.93236 14.4001 10.1613 14.4001 10.4V12.2C14.4 12.367 14.4464 12.5307 14.534 12.6728C14.6217 12.815 14.7472 12.9299 14.8964 13.0048C15.0456 13.0797 15.2128 13.1116 15.3791 13.097C15.5455 13.0823 15.7045 13.0216 15.8383 12.9218C15.4747 14.1206 14.9329 14.8928 14.6629 15.1628C14.5792 15.2465 14.5128 15.3458 14.4676 15.4551C14.4223 15.5645 14.399 15.6816 14.399 15.8C14.399 15.9183 14.4223 16.0355 14.4676 16.1448C14.5128 16.2542 14.5792 16.3535 14.6629 16.4372C14.7466 16.5209 14.8459 16.5872 14.9552 16.6325C15.0646 16.6778 15.1818 16.7011 15.3001 16.7011C15.4184 16.7011 15.5356 16.6778 15.6449 16.6325C15.7543 16.5872 15.8536 16.5209 15.9373 16.4372C16.7095 15.6632 18.0001 13.514 18.0001 10.4C18.0001 10.1613 17.9053 9.93236 17.7365 9.76358C17.5677 9.5948 17.3388 9.49998 17.1001 9.49998H15.3001ZM9.9307 25.7H4.5001C4.2614 25.7 4.03248 25.7948 3.8637 25.9636C3.69492 26.1324 3.6001 26.3613 3.6001 26.6C3.6001 26.8387 3.69492 27.0676 3.8637 27.2364C4.03248 27.4052 4.2614 27.5 4.5001 27.5H10.9153L9.9307 25.7ZM16.0831 27.5H31.5001C31.7388 27.5 31.9677 27.4052 32.1365 27.2364C32.3053 27.0676 32.4001 26.8387 32.4001 26.6C32.4001 26.3613 32.3053 26.1324 32.1365 25.9636C31.9677 25.7948 31.7388 25.7 31.5001 25.7H17.0569L16.0831 27.5ZM3.6001 32C3.6001 31.7613 3.69492 31.5324 3.8637 31.3636C4.03248 31.1948 4.2614 31.1 4.5001 31.1H22.5001C22.7388 31.1 22.9677 31.1948 23.1365 31.3636C23.3053 31.5324 23.4001 31.7613 23.4001 32C23.4001 32.2387 23.3053 32.4676 23.1365 32.6364C22.9677 32.8052 22.7388 32.9 22.5001 32.9H4.5001C4.2614 32.9 4.03248 32.8052 3.8637 32.6364C3.69492 32.4676 3.6001 32.2387 3.6001 32Z" fill="#01078D"/>
</svg>
