<svg width="32" height="31" viewBox="0 0 32 31" fill="none" xmlns="http://www.w3.org/2000/svg">
<path d="M30.5898 11.0039L28.2461 8.71875C27.7188 8.13281 26.7812 8.13281 26.2539 8.71875L12.25 22.7227L5.6875 16.2188C5.16016 15.6328 4.28125 15.6328 3.69531 16.2188L1.41016 18.5039C0.824219 19.0898 0.824219 19.9688 1.41016 20.4961L11.2539 30.3398C11.7812 30.9258 12.6602 30.9258 13.1875 30.3398L30.5312 12.9961C31.1172 12.4688 31.1172 11.5898 30.5898 11.0039ZM11.5469 17.2148C11.8984 17.625 12.543 17.625 12.8945 17.2148L25.082 5.02734C25.4336 4.67578 25.4336 4.08984 25.082 3.67969L22.4453 1.04297C22.0352 0.691406 21.4492 0.691406 21.0977 1.04297L12.25 9.94922L8.96875 6.66797C8.61719 6.31641 8.03125 6.31641 7.67969 6.66797L4.98438 9.30469C4.63281 9.71484 4.63281 10.3008 4.98438 10.6523L11.5469 17.2148Z" fill="#D8232A"/>
</svg>
