<svg width="30" height="36" viewBox="0 0 30 36" fill="none" xmlns="http://www.w3.org/2000/svg">
<g clip-path="url(#clip0_2_1188)">
<path d="M21.7408 30.9885C20.4779 31.2184 19.3348 31.8814 18.5083 32.8635L18.5008 32.8725C18.141 33.3464 17.6578 33.7121 17.104 33.9296C16.5503 34.147 15.9473 34.2079 15.3613 34.1055L15.3808 34.1085V34.089L15.2608 34.092L15.1348 34.089H15.1408V34.1085C14.5591 34.207 13.9615 34.1446 13.4127 33.9281C12.8638 33.7116 12.3846 33.3492 12.0268 32.88L12.0208 32.8725C11.2023 31.8938 10.0692 31.23 8.81528 30.9945L8.78078 30.9885C7.52226 30.721 6.20939 30.9213 5.08788 31.5519C3.96637 32.1825 3.11311 33.2002 2.68778 34.4145L2.67578 34.452L4.44878 35.0445C4.72999 34.2454 5.29609 33.5782 6.03867 33.1705C6.78125 32.7628 7.64812 32.6434 8.47328 32.835L8.45078 32.8305C9.32819 32.9925 10.1167 33.468 10.6693 34.1685L10.6753 34.176C11.1605 34.7723 11.7782 35.2472 12.4792 35.5628C13.1802 35.8784 13.9452 36.026 14.7133 35.994H14.7043C14.8798 35.994 15.0643 35.985 15.2593 35.973C15.4513 35.985 15.6373 35.994 15.8143 35.994C16.579 36.0249 17.3403 35.8775 18.0383 35.5635C18.7362 35.2496 19.3516 34.7777 19.8358 34.185L19.8433 34.176C20.3909 33.4774 21.1732 33.0009 22.0453 32.835L22.0678 32.832C22.8862 32.6461 23.7444 32.7662 24.4803 33.1696C25.2162 33.5731 25.779 34.232 26.0623 35.022L26.0698 35.046L27.8428 34.4535C27.4207 33.2252 26.5624 32.1945 25.4306 31.5571C24.2989 30.9198 22.9725 30.7201 21.7033 30.996L21.7378 30.99L21.7408 30.9885Z" fill="#E40808"/>
<path d="M4.7865 17.738C4.43901 17.7317 4.10656 17.5951 3.85519 17.3551C3.60381 17.1151 3.45189 16.7893 3.4296 16.4425C3.40731 16.0956 3.51628 15.7531 3.73487 15.4829C3.95345 15.2127 4.26566 15.0346 4.6095 14.984H4.617V14.993L5.448 15.143C5.66565 15.2615 5.84736 15.4364 5.97406 15.6494C6.10075 15.8624 6.16774 16.1056 6.168 16.3535V16.355C6.16761 16.7214 6.02228 17.0728 5.76374 17.3325C5.50519 17.5921 5.15443 17.739 4.788 17.741L4.7865 17.738ZM6.483 8.44096L10.563 7.00995H19.9575L24.0375 8.44096V11.864L15.261 10.424L6.4845 11.864L6.483 8.44096ZM12.5085 1.86795H18.0135L18.897 5.13945H11.625L12.5085 1.86795ZM25.077 15.1385L25.908 14.9885V14.981C26.2423 15.0228 26.5499 15.1849 26.7734 15.4369C26.997 15.6889 27.1213 16.0136 27.123 16.3505C27.123 16.7176 26.9771 17.0698 26.7175 17.3294C26.4579 17.5891 26.1057 17.735 25.7385 17.735C25.3713 17.735 25.0192 17.5891 24.7595 17.3294C24.4999 17.0698 24.354 16.7176 24.354 16.3505V16.349C24.354 15.8285 24.642 15.3755 25.0665 15.1415L25.074 15.1385H25.077ZM7.65 29.483H7.659C8.1435 29.483 8.6175 29.5265 9.078 29.6105L9.03 29.603C10.5818 29.884 11.9905 30.6881 13.0215 31.8815L13.029 31.8905C13.26 32.1755 13.539 32.411 13.854 32.588L13.869 32.5955V32.5685L15.2235 32.6885H15.2805L16.641 32.552V32.6C16.971 32.4155 17.25 32.18 17.4765 31.9025L17.481 31.898C18.5013 30.7094 19.8967 29.9045 21.4365 29.6165L21.4785 29.6105C21.8925 29.5325 22.3695 29.486 22.857 29.4845H22.866C23.373 29.4845 23.868 29.5385 24.3435 29.6435L24.2985 29.6345L30.513 12.9335L25.8975 12.1745V7.11946L20.88 5.35845L19.44 0.00195312H11.073L9.633 5.35845L4.6155 7.11946V12.1745L0 12.9335L6.2145 29.6345C6.645 29.5385 7.14 29.4845 7.647 29.4845H7.656L7.65 29.483Z" fill="#E40808"/>
</g>
<defs>
<clipPath id="clip0_2_1188">
<rect width="30" height="36" fill="white"/>
</clipPath>
</defs>
</svg>
