<svg width="32" height="36" viewBox="0 0 32 36" fill="none" xmlns="http://www.w3.org/2000/svg">
<g clip-path="url(#clip0_2_1180)">
<path d="M15.673 0C10.213 0 5.60798 0.3015 4.92098 0.702C3.72098 1.1115 2.81798 3.837 2.81498 7.071V8.6775H2.48798C2.45449 8.6037 2.40998 8.53542 2.35598 8.475C2.49762 8.3119 2.57541 8.10302 2.57498 7.887V7.071C2.59407 6.88011 2.53776 6.68931 2.41809 6.53937C2.29841 6.38942 2.12485 6.29221 1.93448 6.2685H0.647476C0.456005 6.29257 0.281579 6.39068 0.161574 6.54181C0.0415698 6.69293 -0.0144653 6.88506 0.00547656 7.077V7.074V7.89C0.00547656 8.115 0.0879766 8.322 0.224477 8.4795L0.222977 8.478C0.0813332 8.6411 0.00353812 8.84998 0.00397656 9.066V13.095C0.000976562 13.1175 0.000976562 13.1415 0.000976562 13.167C0.000976562 13.542 0.281477 13.8525 0.644476 13.8975H1.93298C2.05364 13.8913 2.16997 13.8505 2.26811 13.78C2.36625 13.7096 2.44205 13.6124 2.48648 13.5L2.48798 13.4955H2.81498V20.7285C2.81498 21.015 3.12248 21.2805 3.61898 21.423V22.362C2.90948 22.4535 2.41898 22.773 2.41898 23.139V31.179C2.36855 32.1754 2.65492 33.1597 3.23198 33.9735L3.22298 33.96V35.3415C3.22298 35.706 3.51848 36.0015 3.88298 36.0015H6.57998C6.75502 36.0015 6.92289 35.932 7.04667 35.8082C7.17044 35.6844 7.23998 35.5165 7.23998 35.3415V34.395H24.1105V35.3415C24.1105 35.706 24.406 36.0015 24.7705 36.0015H27.4675C27.5541 36.0015 27.64 35.9844 27.72 35.9513C27.8001 35.9181 27.8729 35.8695 27.9342 35.8082C27.9955 35.7469 28.0441 35.6741 28.0772 35.5941C28.1104 35.514 28.1275 35.4282 28.1275 35.3415V33.9615C28.7011 33.1481 28.9843 32.1654 28.9315 31.1715V31.182V23.142C28.9315 22.776 28.435 22.4565 27.7315 22.365V21.426C28.228 21.2835 28.534 21.018 28.5355 20.7315V13.5015H28.8625C28.9525 13.7295 29.1655 13.89 29.416 13.9035H30.6985C30.8899 13.8794 31.0644 13.7813 31.1844 13.6302C31.3044 13.4791 31.3604 13.2869 31.3405 13.095V13.098V9.081V9.069C31.3409 8.85254 31.2631 8.6432 31.1215 8.4795L31.123 8.481C31.2646 8.3179 31.3424 8.10902 31.342 7.893V7.08C31.3611 6.8891 31.3048 6.69831 31.1851 6.54837C31.0654 6.39842 30.8918 6.30121 30.7015 6.2775H29.413C29.2215 6.30157 29.0471 6.39968 28.9271 6.55081C28.8071 6.70193 28.751 6.89405 28.771 7.086V7.083V7.899C28.771 8.124 28.8535 8.331 28.99 8.4885L28.9885 8.487C28.9358 8.54595 28.8919 8.61212 28.858 8.6835L28.8565 8.688H28.5295V7.074C28.5295 3.8235 27.6175 1.086 26.4085 0.6975C25.6735 0.2985 21.091 0.003 15.673 0.003V0ZM4.65098 4.6605H26.6935C27.082 4.6605 27.406 4.9365 27.481 5.304L27.4825 5.3085C27.6355 6.0735 27.7225 6.954 27.7225 7.8555V7.9125V7.9095V13.5C27.7225 13.944 27.3625 14.304 26.9185 14.304H4.42298C4.20974 14.304 4.00524 14.2193 3.85446 14.0685C3.70368 13.9177 3.61898 13.7132 3.61898 13.5V7.911V7.857C3.61898 6.9555 3.70598 6.075 3.87248 5.223L3.85898 5.3085C3.89511 5.12583 3.99352 4.96137 4.13742 4.84319C4.28131 4.72501 4.46177 4.66044 4.64798 4.6605H4.65098ZM5.62748 22.3395H7.34948C7.56398 22.3395 7.73798 22.5075 7.74998 22.719V22.7205L8.03648 27.9435V27.9645C8.03648 28.1865 7.85648 28.3665 7.63448 28.3665H5.62748C5.52086 28.3665 5.41861 28.3241 5.34322 28.2488C5.26783 28.1734 5.22548 28.0711 5.22548 27.9645V22.7415C5.22548 22.5195 5.40548 22.3395 5.62748 22.3395ZM23.995 22.3395H25.717C25.939 22.3395 26.119 22.5195 26.119 22.7415V27.96C26.119 28.182 25.939 28.362 25.717 28.362H23.7085C23.6019 28.362 23.4996 28.3196 23.4242 28.2443C23.3488 28.1689 23.3065 28.0666 23.3065 27.96V27.9375V27.939L23.593 22.716C23.608 22.506 23.782 22.341 23.9935 22.341H23.995V22.3395ZM9.04297 23.2995H22.303C22.414 23.2995 22.504 23.3895 22.504 23.5005V23.7405C22.504 23.8515 22.414 23.9415 22.303 23.9415H9.04297C8.98967 23.9415 8.93854 23.9203 8.90085 23.8826C8.86315 23.8449 8.84198 23.7938 8.84198 23.7405V23.5005C8.84198 23.3895 8.93198 23.2995 9.04297 23.2995ZM9.12247 24.7455H22.222C22.333 24.7455 22.423 24.8355 22.423 24.9465V25.1865C22.423 25.2975 22.333 25.3875 22.222 25.3875H9.12247C9.06917 25.3875 9.01804 25.3663 8.98035 25.3286C8.94265 25.2909 8.92148 25.2398 8.92148 25.1865V24.9465C8.92148 24.8355 9.01147 24.7455 9.12247 24.7455ZM9.20347 26.1915H22.1425C22.2535 26.1915 22.3435 26.2815 22.3435 26.3925V26.6325C22.3435 26.7435 22.2535 26.8335 22.1425 26.8335H9.20347C9.15184 26.8335 9.1022 26.8136 9.06499 26.7777C9.02779 26.7419 9.00592 26.6931 9.00397 26.6415V26.4015C9.00397 26.2905 9.09398 26.2005 9.20498 26.2005L9.20347 26.1915ZM9.28448 27.6375H22.0615C22.1725 27.6375 22.2625 27.7275 22.2625 27.8385V28.0785C22.2625 28.1895 22.1725 28.2795 22.0615 28.2795H9.28448C9.23117 28.2795 9.18004 28.2583 9.14235 28.2206C9.10465 28.1829 9.08348 28.1318 9.08348 28.0785V27.8385C9.08348 27.7275 9.17348 27.6375 9.28448 27.6375Z" fill="#E40808"/>
</g>
<defs>
<clipPath id="clip0_2_1180">
<rect width="31.5" height="36" fill="white"/>
</clipPath>
</defs>
</svg>
